<svg width="16" height="16" viewBox="0 0 16 16" fill="none" xmlns="http://www.w3.org/2000/svg">
<g clip-path="url(#clip0_20_13)">
<mask id="path-1-inside-1_20_13" fill="white">
<path fill-rule="evenodd" clip-rule="evenodd" d="M7.91745 0.0437897C7.87176 0.0730639 7.82191 0.111961 7.80668 0.130227C7.73243 0.219269 7.06986 0.675854 6.26013 1.19597C5.82273 1.47693 5.73172 1.53382 5.4898 1.6774C5.12396 1.89453 5.15503 1.86439 5.16632 1.99133C5.17483 2.08685 5.18248 2.10359 5.23134 2.1338C5.71363 2.43185 5.83877 2.5144 5.8267 2.52648C5.80807 2.54514 4.91468 2.35932 4.88294 2.33019C4.8741 2.32208 4.8557 2.24024 4.84203 2.14838C4.79354 1.82194 4.68054 1.51655 4.55166 1.3637L4.49136 1.29218L4.39588 1.34059C4.34338 1.36721 4.27201 1.41393 4.2373 1.44443C4.15075 1.52045 4.13192 1.5159 4.14187 1.42138C4.14642 1.3782 4.15445 1.28454 4.15971 1.21323C4.17893 0.953138 4.24631 0.817682 4.37901 0.772358L4.44975 0.748199L4.33232 0.654707C4.16776 0.523702 4.04589 0.388357 3.99653 0.281714L3.95436 0.190678L3.92139 0.295807C3.88519 0.41126 3.79283 0.604543 3.76591 0.621184C3.75044 0.630752 3.56937 0.53048 3.44696 0.444542L3.39792 0.410133L3.38544 0.500892C3.37741 0.559274 3.38089 0.606446 3.39517 0.633134C3.44116 0.719128 3.3665 0.968652 3.25271 1.10924L3.21767 1.15253L3.07068 1.01363L2.92369 0.874716L2.91917 0.951808C2.9054 1.18716 2.87064 1.39441 2.8212 1.53602L2.76613 1.6938L2.83992 1.79539C2.99966 2.0153 3.09106 2.17916 3.20333 2.44686C3.26772 2.6004 3.32775 2.7334 3.33673 2.74237C3.34621 2.75187 3.38266 2.71003 3.42353 2.64269C3.57255 2.39729 3.89929 2.11631 4.15136 2.01682C4.27993 1.96608 4.44864 1.93821 4.50373 1.9586C4.54154 1.97258 4.53818 1.9755 4.47205 1.98608C4.37921 2.00093 4.19735 2.11749 4.054 2.254C3.90819 2.39287 3.69851 2.67385 3.60227 2.8593C3.50705 3.04286 3.47227 3.17157 3.45623 3.40004L3.44387 3.57583L3.52531 3.50973C3.61285 3.43869 3.81906 3.31718 3.81906 3.33665C3.81906 3.34315 3.76517 3.4147 3.6993 3.49565C3.49708 3.74422 3.44659 3.87921 3.44297 4.18102C3.44168 4.28938 3.44663 4.38406 3.45399 4.39143C3.47173 4.40919 3.76017 4.30133 3.91137 4.22042C4.16598 4.08417 4.41492 3.86083 4.55653 3.64162C4.64568 3.50361 4.64996 3.52855 4.57641 3.75755C4.45156 4.14634 4.24312 4.36513 3.82329 4.54803C3.63997 4.62791 3.48035 4.72938 3.46175 4.77788C3.45429 4.79735 3.47301 4.81074 3.52876 4.82576C3.61759 4.84969 3.75175 4.91685 3.81906 4.97107C3.87672 5.01753 3.86848 5.01775 3.73896 4.97316C3.49824 4.89031 3.08386 4.87692 2.80798 4.94307L2.67382 4.97525L2.81259 5.12819C2.9491 5.27861 2.98461 5.34054 2.91908 5.31387C2.90132 5.30663 2.83277 5.28197 2.76677 5.25909C2.58375 5.19559 2.36629 5.07914 2.21404 4.9631C2.0005 4.80032 1.84397 4.73356 1.60521 4.70341L1.50519 4.69078L1.54625 4.74373C1.64164 4.86674 1.75831 5.05659 1.8148 5.18074C1.87247 5.3075 1.93602 5.52069 1.93602 5.58744C1.93602 5.62693 1.95699 5.6261 2.09072 5.58135C2.35954 5.49136 2.75261 5.49155 2.99359 5.58175C3.29956 5.69628 3.46922 6.04683 3.41648 6.45551C3.37544 6.77359 3.31094 6.89181 2.89964 7.40292C2.43526 7.97997 2.2237 8.27498 1.90912 8.78415L1.78512 8.98484L1.89134 9.21331C1.94977 9.33895 2.00242 9.44155 2.00833 9.44128C2.02177 9.44067 2.11048 9.24123 2.15087 9.12079C2.18604 9.01596 2.20239 9.03138 2.2196 9.18553C2.24491 9.41246 2.35154 9.64607 2.45513 9.70153C2.50507 9.72825 2.6229 9.72796 2.6733 9.70098C2.71901 9.6765 2.76677 9.58885 2.76677 9.52941C2.76677 9.45605 2.66878 9.3263 2.54016 9.22934C2.38845 9.11499 2.37578 9.06446 2.49469 9.04815C2.71096 9.01849 2.94706 9.1721 3.03147 9.39739C3.12726 9.65307 3.07249 9.99715 2.90532 10.1898C2.86508 10.2362 2.859 10.2387 2.86807 10.2054C2.89338 10.1124 2.91278 9.94943 2.90313 9.91092L2.89268 9.86931L2.80665 9.90645C2.75933 9.92688 2.66149 9.94815 2.58921 9.95373C2.46916 9.963 2.44935 9.95929 2.3598 9.9106C2.29562 9.87573 2.24438 9.82991 2.21137 9.77792L2.16097 9.6985L2.09925 9.80204C2.06532 9.859 2.00604 9.95582 1.96753 10.0172L1.89753 10.1288L1.94241 10.187C1.96709 10.219 2.10245 10.3745 2.24319 10.5325C2.38392 10.6906 2.66895 11.0105 2.87658 11.2436C3.08419 11.4767 3.38293 11.8045 3.54045 11.9721C4.40101 12.8879 4.30849 12.8019 6.19133 14.4344C7.17623 15.2884 7.98622 15.9929 7.9913 16C8.00086 16.0133 11.3881 13.086 11.5791 12.8994C11.794 12.6894 12.7589 11.6562 13.1783 11.1871C13.8427 10.4439 14.102 10.1486 14.102 10.135C14.102 10.1282 14.0785 10.0878 14.0499 10.0454C14.0212 10.0029 13.967 9.91241 13.9294 9.8443C13.8918 9.77618 13.8534 9.71573 13.8441 9.70997C13.8348 9.70421 13.8135 9.7284 13.7967 9.76373C13.7782 9.80272 13.7289 9.85189 13.6713 9.88883C13.5847 9.94429 13.564 9.94958 13.4376 9.94849C13.3365 9.9476 13.2743 9.93626 13.2083 9.90669C13.1586 9.88438 13.1129 9.87112 13.1068 9.87723C13.089 9.89522 13.1 10.1111 13.1218 10.1713C13.1415 10.2256 13.1406 10.2253 13.0776 10.1548C12.9527 10.0148 12.8942 9.75371 12.938 9.53104C12.998 9.22633 13.1855 9.05521 13.4604 9.05432C13.5709 9.05395 13.585 9.05792 13.585 9.08917C13.585 9.1106 13.5375 9.16178 13.4638 9.21971C13.3059 9.34385 13.2283 9.46187 13.2407 9.55902C13.2581 9.69586 13.4046 9.77428 13.5258 9.71158C13.6642 9.63997 13.7387 9.47328 13.799 9.10009C13.8087 9.03999 13.8136 9.0331 13.8252 9.06315C13.8935 9.24003 13.9825 9.44177 13.9922 9.44177C14.0126 9.44177 14.2152 8.99457 14.2058 8.97019C14.19 8.92899 13.916 8.49576 13.774 8.28743C13.5971 8.02799 13.4231 7.79867 13.0846 7.37882C12.7703 6.98917 12.7015 6.88256 12.6335 6.68039C12.5915 6.55543 12.584 6.5017 12.5842 6.32966C12.5847 5.93587 12.7263 5.6932 13.0234 5.577C13.2187 5.50061 13.5746 5.4965 13.8435 5.56747C13.9197 5.58757 13.9989 5.60792 14.0195 5.61269C14.0525 5.62032 14.06 5.60722 14.081 5.50453C14.1267 5.28114 14.2579 5.00755 14.4271 4.78283L14.4932 4.6951L14.4406 4.69542C14.341 4.69603 14.1353 4.74942 14.0311 4.80171C13.9736 4.83056 13.8562 4.90643 13.7703 4.97035C13.6843 5.03426 13.5597 5.11386 13.4933 5.14727C13.3647 5.21203 13.0497 5.32887 13.0497 5.3118C13.0497 5.29664 13.1755 5.14033 13.2584 5.05245L13.3307 4.97577L13.1523 4.93451C12.9064 4.87767 12.5234 4.8887 12.3066 4.95887C12.2279 4.98434 12.1635 4.99948 12.1635 4.99256C12.1635 4.97019 12.3545 4.86608 12.4542 4.83409C12.5397 4.80664 12.5488 4.79899 12.5323 4.76824C12.503 4.71339 12.3701 4.63061 12.1657 4.53998C11.7983 4.37702 11.5961 4.18769 11.4766 3.89495C11.4232 3.76405 11.3646 3.56737 11.3758 3.55623C11.3789 3.55309 11.4174 3.60479 11.4613 3.67113C11.629 3.92441 11.9683 4.18653 12.2982 4.31757C12.5501 4.41764 12.5462 4.41762 12.5612 4.31783C12.5788 4.20027 12.5549 3.96844 12.5119 3.83943C12.4681 3.70813 12.4201 3.63035 12.2832 3.46887C12.2253 3.40061 12.1813 3.34138 12.1854 3.33728C12.1985 3.32415 12.4364 3.47488 12.4948 3.53337L12.5512 3.58977L12.5506 3.47292C12.5494 3.25804 12.5048 3.07499 12.4051 2.87585C12.1977 2.46138 11.7937 2.04773 11.5278 1.97755C11.4888 1.96724 11.5141 1.96438 11.6097 1.9683C11.9272 1.98128 12.3201 2.2564 12.5728 2.64269L12.6619 2.77893L12.6878 2.71657C12.9214 2.15316 12.9495 2.09788 13.1317 1.84381L13.235 1.69982L13.1776 1.52135C13.1363 1.3928 13.1146 1.27722 13.1001 1.10819L13.0799 0.873478L12.9268 1.01255L12.7736 1.15163L12.7177 1.06346C12.6493 0.955446 12.5878 0.795463 12.589 0.728068C12.5894 0.70053 12.6003 0.653303 12.6132 0.623142C12.6299 0.583894 12.6316 0.546752 12.6192 0.492452L12.6018 0.416579L12.4544 0.505233C12.3733 0.553992 12.2945 0.604192 12.2794 0.61677C12.2569 0.635424 12.2467 0.632968 12.224 0.603398C12.1835 0.550797 12.097 0.358418 12.0721 0.265609L12.0506 0.185673L12.0055 0.276118C11.945 0.397574 11.8563 0.49814 11.6886 0.635184L11.5489 0.749455L11.6189 0.773706C11.712 0.805972 11.7388 0.830278 11.7776 0.918082C11.8204 1.01492 11.8804 1.49987 11.8495 1.49987C11.8422 1.49987 11.804 1.47411 11.7645 1.4426C11.7251 1.41111 11.6515 1.36432 11.601 1.33865L11.5093 1.29198L11.4473 1.3636C11.3196 1.51114 11.2135 1.80388 11.1443 2.19981L11.1205 2.33641L10.8436 2.39925C10.505 2.47606 10.2002 2.53376 10.1894 2.52303C10.1756 2.50927 10.209 2.48561 10.4836 2.31512C10.8374 2.09542 10.8288 2.10357 10.8405 1.97517L10.8502 1.86869L10.7753 1.83046C10.5872 1.73447 9.35543 0.955298 8.92359 0.659158C8.64113 0.465449 8.33754 0.247102 8.19437 0.134678C8.10806 0.066895 8.02914 0.00675824 8.01899 0.00101421C8.00883 -0.00472982 7.96314 0.0145154 7.91745 0.0437897ZM2.41821 2.01257C2.39602 2.09119 2.36419 2.18724 2.34746 2.22597C2.32005 2.28945 2.31237 2.29491 2.26961 2.28137C2.21886 2.26531 1.90449 2.26405 1.8887 2.27984C1.8835 2.28505 1.92485 2.33678 1.98058 2.3948C2.10446 2.52379 2.15803 2.63002 2.17092 2.77231C2.17941 2.8659 2.17402 2.89288 2.1313 2.9706C2.10411 3.02006 2.06024 3.08533 2.03383 3.11562L1.98581 3.1707L1.86245 3.03713C1.79462 2.96366 1.73479 2.90356 1.72951 2.90356C1.72423 2.90356 1.71471 2.96501 1.70835 3.04012C1.70202 3.11524 1.6821 3.21619 1.66412 3.26449C1.63421 3.34474 1.62388 3.35447 1.54372 3.37782C1.45966 3.40229 1.43662 3.42499 1.47299 3.44749C1.50288 3.46596 1.61479 3.68183 1.71526 3.91476C1.76894 4.03921 1.82099 4.14102 1.83092 4.14102C1.86291 4.14102 2.10053 3.87986 2.18436 3.75257C2.26712 3.62688 2.33893 3.47377 2.40065 3.29142L2.43502 3.18984L2.42805 3.41147C2.4166 3.77447 2.30975 4.02451 2.04003 4.31938C1.98284 4.38193 1.93626 4.44011 1.93653 4.44866C1.93683 4.45723 1.98376 4.49253 2.04084 4.5271C2.09792 4.56168 2.2155 4.64686 2.30214 4.71642C2.38878 4.78595 2.4675 4.84286 2.47706 4.84286C2.50787 4.84286 2.79068 4.71069 2.91952 4.63607C3.08096 4.5426 3.13356 4.46503 3.15584 4.28752C3.19751 3.95555 3.10358 3.6817 2.85572 3.41249C2.78141 3.33177 2.73723 3.27191 2.75754 3.27947C2.83427 3.30802 2.99405 3.41455 3.08181 3.49569L3.17292 3.57993V3.49242C3.17292 3.23895 3.06885 2.84298 2.92838 2.56187C2.8452 2.39546 2.61486 2.04336 2.5207 1.93869L2.45853 1.8696L2.41821 2.01257ZM13.4601 1.96072C13.199 2.2644 12.964 2.72775 12.8729 3.1183C12.8433 3.24519 12.8099 3.58693 12.8271 3.58693C12.8321 3.58693 12.878 3.54585 12.9291 3.49567C13.0162 3.4101 13.2195 3.27295 13.2592 3.27295C13.269 3.27295 13.227 3.32514 13.1657 3.38892C13.0412 3.51867 12.9484 3.65711 12.8843 3.80857C12.8473 3.89583 12.8411 3.94269 12.8399 4.14102C12.8385 4.35356 12.8421 4.37839 12.8841 4.45389C12.9423 4.55865 13.0474 4.63323 13.3118 4.75753L13.5238 4.85717L13.6698 4.74C13.7501 4.67554 13.8717 4.58713 13.9399 4.54352C14.0082 4.49992 14.0643 4.45686 14.0646 4.44785C14.0648 4.43884 14.011 4.37107 13.945 4.29727C13.6905 4.01286 13.5868 3.76826 13.5733 3.4207L13.565 3.2083L13.6124 3.33759C13.7214 3.63486 13.87 3.86852 14.0815 4.07515L14.1747 4.16628L14.2239 4.05668C14.3472 3.78208 14.4718 3.52714 14.5068 3.478C14.5278 3.44843 14.545 3.41995 14.545 3.41472C14.545 3.40949 14.5036 3.39145 14.453 3.37462C14.3656 3.34559 14.3596 3.33929 14.3325 3.24848C14.3168 3.19591 14.2988 3.09163 14.2924 3.01676L14.2808 2.88062L14.148 3.02562L14.0152 3.17063L13.9664 3.11559C13.9396 3.08532 13.8957 3.01659 13.8688 2.96288C13.7792 2.78358 13.8325 2.59694 14.0314 2.39372L14.1417 2.281L14.0546 2.26906C13.9308 2.25208 13.8255 2.25426 13.752 2.27535C13.6741 2.2977 13.6733 2.29663 13.611 2.0909C13.5368 1.84553 13.5496 1.85659 13.4601 1.96072ZM0.672274 4.3835C0.680526 4.39743 0.706261 4.43417 0.729486 4.46514C0.795503 4.55324 0.950042 4.88977 1.01272 5.08198C1.04403 5.17795 1.09042 5.37327 1.11582 5.51602C1.19809 5.97833 1.21459 6.04044 1.27278 6.10675C1.30234 6.14044 1.34943 6.173 1.37744 6.17911C1.40542 6.18524 1.44645 6.19542 1.46858 6.20174C1.50166 6.21119 1.51527 6.20057 1.5451 6.14206C1.62692 5.9816 1.67167 5.67933 1.63979 5.50237C1.59354 5.2457 1.36906 4.9056 1.09367 4.67499C0.932836 4.54031 0.648736 4.34379 0.672274 4.3835ZM15.1809 4.46313C14.7069 4.78788 14.406 5.17723 14.3565 5.52993C14.3324 5.70221 14.3685 5.94942 14.4412 6.10815L14.4891 6.21295L14.5678 6.2002C14.622 6.19145 14.6679 6.16696 14.7149 6.1218C14.7905 6.0491 14.794 6.03752 14.869 5.60912C14.8939 5.4668 14.934 5.27979 14.9581 5.19356C15.0296 4.93735 15.1785 4.59247 15.273 4.46423C15.3226 4.39682 15.3433 4.36265 15.3343 4.36265C15.3306 4.36265 15.2616 4.40786 15.1809 4.46313ZM2.22056 5.83696C2.07634 5.88683 1.93694 5.98522 1.87739 6.07917C1.81331 6.18026 1.71142 6.48957 1.66708 6.71752C1.6269 6.92412 1.62061 7.50321 1.65574 7.76105C1.68343 7.96432 1.74794 8.3459 1.76285 8.39475C1.77064 8.42028 1.79795 8.39186 1.87822 8.2747C2.10708 7.94057 2.34534 7.63394 2.67137 7.25385C3.08028 6.77717 3.19114 6.51965 3.10906 6.23718C3.08288 6.14709 3.05678 6.10806 2.95371 6.00494C2.84691 5.89812 2.81248 5.87564 2.70404 5.84214C2.54801 5.79393 2.3511 5.79181 2.22056 5.83696ZM13.3174 5.82898C13.207 5.86373 13.1621 5.89197 13.0529 5.99532C12.9038 6.13635 12.8745 6.20345 12.8747 6.40354C12.875 6.67059 12.9546 6.81476 13.3743 7.30854C13.6126 7.58885 14.0175 8.11453 14.1629 8.33231C14.2061 8.39712 14.233 8.42327 14.2389 8.40619C14.2521 8.36816 14.3172 7.9851 14.3454 7.77952C14.3592 7.67871 14.3689 7.44295 14.3681 7.22543C14.3668 6.87996 14.3622 6.82741 14.3155 6.62517C14.2519 6.3502 14.1763 6.13964 14.1096 6.05219C14.0426 5.96427 13.9229 5.88343 13.7942 5.83911C13.673 5.79742 13.4338 5.79234 13.3174 5.82898ZM2.31685 6.22961C2.28876 6.53208 2.21188 6.70656 2.01836 6.90722C1.94346 6.98488 1.8839 7.05006 1.88601 7.05207C1.90174 7.06703 2.22394 7.00077 2.27198 6.97269C2.41647 6.88827 2.50913 6.64395 2.47494 6.43752C2.45818 6.33632 2.38463 6.15385 2.34359 6.11168C2.33567 6.10355 2.32363 6.15662 2.31685 6.22961ZM13.6097 6.20102C13.4984 6.41103 13.494 6.63145 13.5972 6.82128C13.6804 6.97415 13.7469 7.00908 14.0004 7.03287L14.1296 7.04498L14.0732 7.0013C13.8496 6.82824 13.7131 6.56184 13.6822 6.23796L13.6681 6.09086L13.6097 6.20102ZM1.09657 6.41861C1.04999 6.48971 1.0141 6.68279 0.987813 7.0038C0.974078 7.17141 0.965401 7.31159 0.968503 7.3153C0.979857 7.32886 1.17228 7.12139 1.22995 7.03344C1.29735 6.93064 1.35432 6.79043 1.39946 6.61632L1.43049 6.49666L1.31048 6.43624C1.16801 6.36453 1.13382 6.3617 1.09657 6.41861ZM14.7204 6.42204C14.6798 6.44731 14.6325 6.46803 14.6153 6.46809C14.5644 6.46823 14.5637 6.49008 14.6093 6.65186C14.6747 6.88352 14.7694 7.05943 14.9054 7.20166C14.9705 7.26966 15.0272 7.32153 15.0316 7.31691C15.0431 7.30463 14.9929 6.71595 14.9703 6.59898C14.9298 6.38933 14.8564 6.3374 14.7204 6.42204Z"/>
</mask>
<path fill-rule="evenodd" clip-rule="evenodd" d="M7.91745 0.0437897C7.87176 0.0730639 7.82191 0.111961 7.80668 0.130227C7.73243 0.219269 7.06986 0.675854 6.26013 1.19597C5.82273 1.47693 5.73172 1.53382 5.4898 1.6774C5.12396 1.89453 5.15503 1.86439 5.16632 1.99133C5.17483 2.08685 5.18248 2.10359 5.23134 2.1338C5.71363 2.43185 5.83877 2.5144 5.8267 2.52648C5.80807 2.54514 4.91468 2.35932 4.88294 2.33019C4.8741 2.32208 4.8557 2.24024 4.84203 2.14838C4.79354 1.82194 4.68054 1.51655 4.55166 1.3637L4.49136 1.29218L4.39588 1.34059C4.34338 1.36721 4.27201 1.41393 4.2373 1.44443C4.15075 1.52045 4.13192 1.5159 4.14187 1.42138C4.14642 1.3782 4.15445 1.28454 4.15971 1.21323C4.17893 0.953138 4.24631 0.817682 4.37901 0.772358L4.44975 0.748199L4.33232 0.654707C4.16776 0.523702 4.04589 0.388357 3.99653 0.281714L3.95436 0.190678L3.92139 0.295807C3.88519 0.41126 3.79283 0.604543 3.76591 0.621184C3.75044 0.630752 3.56937 0.53048 3.44696 0.444542L3.39792 0.410133L3.38544 0.500892C3.37741 0.559274 3.38089 0.606446 3.39517 0.633134C3.44116 0.719128 3.3665 0.968652 3.25271 1.10924L3.21767 1.15253L3.07068 1.01363L2.92369 0.874716L2.91917 0.951808C2.9054 1.18716 2.87064 1.39441 2.8212 1.53602L2.76613 1.6938L2.83992 1.79539C2.99966 2.0153 3.09106 2.17916 3.20333 2.44686C3.26772 2.6004 3.32775 2.7334 3.33673 2.74237C3.34621 2.75187 3.38266 2.71003 3.42353 2.64269C3.57255 2.39729 3.89929 2.11631 4.15136 2.01682C4.27993 1.96608 4.44864 1.93821 4.50373 1.9586C4.54154 1.97258 4.53818 1.9755 4.47205 1.98608C4.37921 2.00093 4.19735 2.11749 4.054 2.254C3.90819 2.39287 3.69851 2.67385 3.60227 2.8593C3.50705 3.04286 3.47227 3.17157 3.45623 3.40004L3.44387 3.57583L3.52531 3.50973C3.61285 3.43869 3.81906 3.31718 3.81906 3.33665C3.81906 3.34315 3.76517 3.4147 3.6993 3.49565C3.49708 3.74422 3.44659 3.87921 3.44297 4.18102C3.44168 4.28938 3.44663 4.38406 3.45399 4.39143C3.47173 4.40919 3.76017 4.30133 3.91137 4.22042C4.16598 4.08417 4.41492 3.86083 4.55653 3.64162C4.64568 3.50361 4.64996 3.52855 4.57641 3.75755C4.45156 4.14634 4.24312 4.36513 3.82329 4.54803C3.63997 4.62791 3.48035 4.72938 3.46175 4.77788C3.45429 4.79735 3.47301 4.81074 3.52876 4.82576C3.61759 4.84969 3.75175 4.91685 3.81906 4.97107C3.87672 5.01753 3.86848 5.01775 3.73896 4.97316C3.49824 4.89031 3.08386 4.87692 2.80798 4.94307L2.67382 4.97525L2.81259 5.12819C2.9491 5.27861 2.98461 5.34054 2.91908 5.31387C2.90132 5.30663 2.83277 5.28197 2.76677 5.25909C2.58375 5.19559 2.36629 5.07914 2.21404 4.9631C2.0005 4.80032 1.84397 4.73356 1.60521 4.70341L1.50519 4.69078L1.54625 4.74373C1.64164 4.86674 1.75831 5.05659 1.8148 5.18074C1.87247 5.3075 1.93602 5.52069 1.93602 5.58744C1.93602 5.62693 1.95699 5.6261 2.09072 5.58135C2.35954 5.49136 2.75261 5.49155 2.99359 5.58175C3.29956 5.69628 3.46922 6.04683 3.41648 6.45551C3.37544 6.77359 3.31094 6.89181 2.89964 7.40292C2.43526 7.97997 2.2237 8.27498 1.90912 8.78415L1.78512 8.98484L1.89134 9.21331C1.94977 9.33895 2.00242 9.44155 2.00833 9.44128C2.02177 9.44067 2.11048 9.24123 2.15087 9.12079C2.18604 9.01596 2.20239 9.03138 2.2196 9.18553C2.24491 9.41246 2.35154 9.64607 2.45513 9.70153C2.50507 9.72825 2.6229 9.72796 2.6733 9.70098C2.71901 9.6765 2.76677 9.58885 2.76677 9.52941C2.76677 9.45605 2.66878 9.3263 2.54016 9.22934C2.38845 9.11499 2.37578 9.06446 2.49469 9.04815C2.71096 9.01849 2.94706 9.1721 3.03147 9.39739C3.12726 9.65307 3.07249 9.99715 2.90532 10.1898C2.86508 10.2362 2.859 10.2387 2.86807 10.2054C2.89338 10.1124 2.91278 9.94943 2.90313 9.91092L2.89268 9.86931L2.80665 9.90645C2.75933 9.92688 2.66149 9.94815 2.58921 9.95373C2.46916 9.963 2.44935 9.95929 2.3598 9.9106C2.29562 9.87573 2.24438 9.82991 2.21137 9.77792L2.16097 9.6985L2.09925 9.80204C2.06532 9.859 2.00604 9.95582 1.96753 10.0172L1.89753 10.1288L1.94241 10.187C1.96709 10.219 2.10245 10.3745 2.24319 10.5325C2.38392 10.6906 2.66895 11.0105 2.87658 11.2436C3.08419 11.4767 3.38293 11.8045 3.54045 11.9721C4.40101 12.8879 4.30849 12.8019 6.19133 14.4344C7.17623 15.2884 7.98622 15.9929 7.9913 16C8.00086 16.0133 11.3881 13.086 11.5791 12.8994C11.794 12.6894 12.7589 11.6562 13.1783 11.1871C13.8427 10.4439 14.102 10.1486 14.102 10.135C14.102 10.1282 14.0785 10.0878 14.0499 10.0454C14.0212 10.0029 13.967 9.91241 13.9294 9.8443C13.8918 9.77618 13.8534 9.71573 13.8441 9.70997C13.8348 9.70421 13.8135 9.7284 13.7967 9.76373C13.7782 9.80272 13.7289 9.85189 13.6713 9.88883C13.5847 9.94429 13.564 9.94958 13.4376 9.94849C13.3365 9.9476 13.2743 9.93626 13.2083 9.90669C13.1586 9.88438 13.1129 9.87112 13.1068 9.87723C13.089 9.89522 13.1 10.1111 13.1218 10.1713C13.1415 10.2256 13.1406 10.2253 13.0776 10.1548C12.9527 10.0148 12.8942 9.75371 12.938 9.53104C12.998 9.22633 13.1855 9.05521 13.4604 9.05432C13.5709 9.05395 13.585 9.05792 13.585 9.08917C13.585 9.1106 13.5375 9.16178 13.4638 9.21971C13.3059 9.34385 13.2283 9.46187 13.2407 9.55902C13.2581 9.69586 13.4046 9.77428 13.5258 9.71158C13.6642 9.63997 13.7387 9.47328 13.799 9.10009C13.8087 9.03999 13.8136 9.0331 13.8252 9.06315C13.8935 9.24003 13.9825 9.44177 13.9922 9.44177C14.0126 9.44177 14.2152 8.99457 14.2058 8.97019C14.19 8.92899 13.916 8.49576 13.774 8.28743C13.5971 8.02799 13.4231 7.79867 13.0846 7.37882C12.7703 6.98917 12.7015 6.88256 12.6335 6.68039C12.5915 6.55543 12.584 6.5017 12.5842 6.32966C12.5847 5.93587 12.7263 5.6932 13.0234 5.577C13.2187 5.50061 13.5746 5.4965 13.8435 5.56747C13.9197 5.58757 13.9989 5.60792 14.0195 5.61269C14.0525 5.62032 14.06 5.60722 14.081 5.50453C14.1267 5.28114 14.2579 5.00755 14.4271 4.78283L14.4932 4.6951L14.4406 4.69542C14.341 4.69603 14.1353 4.74942 14.0311 4.80171C13.9736 4.83056 13.8562 4.90643 13.7703 4.97035C13.6843 5.03426 13.5597 5.11386 13.4933 5.14727C13.3647 5.21203 13.0497 5.32887 13.0497 5.3118C13.0497 5.29664 13.1755 5.14033 13.2584 5.05245L13.3307 4.97577L13.1523 4.93451C12.9064 4.87767 12.5234 4.8887 12.3066 4.95887C12.2279 4.98434 12.1635 4.99948 12.1635 4.99256C12.1635 4.97019 12.3545 4.86608 12.4542 4.83409C12.5397 4.80664 12.5488 4.79899 12.5323 4.76824C12.503 4.71339 12.3701 4.63061 12.1657 4.53998C11.7983 4.37702 11.5961 4.18769 11.4766 3.89495C11.4232 3.76405 11.3646 3.56737 11.3758 3.55623C11.3789 3.55309 11.4174 3.60479 11.4613 3.67113C11.629 3.92441 11.9683 4.18653 12.2982 4.31757C12.5501 4.41764 12.5462 4.41762 12.5612 4.31783C12.5788 4.20027 12.5549 3.96844 12.5119 3.83943C12.4681 3.70813 12.4201 3.63035 12.2832 3.46887C12.2253 3.40061 12.1813 3.34138 12.1854 3.33728C12.1985 3.32415 12.4364 3.47488 12.4948 3.53337L12.5512 3.58977L12.5506 3.47292C12.5494 3.25804 12.5048 3.07499 12.4051 2.87585C12.1977 2.46138 11.7937 2.04773 11.5278 1.97755C11.4888 1.96724 11.5141 1.96438 11.6097 1.9683C11.9272 1.98128 12.3201 2.2564 12.5728 2.64269L12.6619 2.77893L12.6878 2.71657C12.9214 2.15316 12.9495 2.09788 13.1317 1.84381L13.235 1.69982L13.1776 1.52135C13.1363 1.3928 13.1146 1.27722 13.1001 1.10819L13.0799 0.873478L12.9268 1.01255L12.7736 1.15163L12.7177 1.06346C12.6493 0.955446 12.5878 0.795463 12.589 0.728068C12.5894 0.70053 12.6003 0.653303 12.6132 0.623142C12.6299 0.583894 12.6316 0.546752 12.6192 0.492452L12.6018 0.416579L12.4544 0.505233C12.3733 0.553992 12.2945 0.604192 12.2794 0.61677C12.2569 0.635424 12.2467 0.632968 12.224 0.603398C12.1835 0.550797 12.097 0.358418 12.0721 0.265609L12.0506 0.185673L12.0055 0.276118C11.945 0.397574 11.8563 0.49814 11.6886 0.635184L11.5489 0.749455L11.6189 0.773706C11.712 0.805972 11.7388 0.830278 11.7776 0.918082C11.8204 1.01492 11.8804 1.49987 11.8495 1.49987C11.8422 1.49987 11.804 1.47411 11.7645 1.4426C11.7251 1.41111 11.6515 1.36432 11.601 1.33865L11.5093 1.29198L11.4473 1.3636C11.3196 1.51114 11.2135 1.80388 11.1443 2.19981L11.1205 2.33641L10.8436 2.39925C10.505 2.47606 10.2002 2.53376 10.1894 2.52303C10.1756 2.50927 10.209 2.48561 10.4836 2.31512C10.8374 2.09542 10.8288 2.10357 10.8405 1.97517L10.8502 1.86869L10.7753 1.83046C10.5872 1.73447 9.35543 0.955298 8.92359 0.659158C8.64113 0.465449 8.33754 0.247102 8.19437 0.134678C8.10806 0.066895 8.02914 0.00675824 8.01899 0.00101421C8.00883 -0.00472982 7.96314 0.0145154 7.91745 0.0437897ZM2.41821 2.01257C2.39602 2.09119 2.36419 2.18724 2.34746 2.22597C2.32005 2.28945 2.31237 2.29491 2.26961 2.28137C2.21886 2.26531 1.90449 2.26405 1.8887 2.27984C1.8835 2.28505 1.92485 2.33678 1.98058 2.3948C2.10446 2.52379 2.15803 2.63002 2.17092 2.77231C2.17941 2.8659 2.17402 2.89288 2.1313 2.9706C2.10411 3.02006 2.06024 3.08533 2.03383 3.11562L1.98581 3.1707L1.86245 3.03713C1.79462 2.96366 1.73479 2.90356 1.72951 2.90356C1.72423 2.90356 1.71471 2.96501 1.70835 3.04012C1.70202 3.11524 1.6821 3.21619 1.66412 3.26449C1.63421 3.34474 1.62388 3.35447 1.54372 3.37782C1.45966 3.40229 1.43662 3.42499 1.47299 3.44749C1.50288 3.46596 1.61479 3.68183 1.71526 3.91476C1.76894 4.03921 1.82099 4.14102 1.83092 4.14102C1.86291 4.14102 2.10053 3.87986 2.18436 3.75257C2.26712 3.62688 2.33893 3.47377 2.40065 3.29142L2.43502 3.18984L2.42805 3.41147C2.4166 3.77447 2.30975 4.02451 2.04003 4.31938C1.98284 4.38193 1.93626 4.44011 1.93653 4.44866C1.93683 4.45723 1.98376 4.49253 2.04084 4.5271C2.09792 4.56168 2.2155 4.64686 2.30214 4.71642C2.38878 4.78595 2.4675 4.84286 2.47706 4.84286C2.50787 4.84286 2.79068 4.71069 2.91952 4.63607C3.08096 4.5426 3.13356 4.46503 3.15584 4.28752C3.19751 3.95555 3.10358 3.6817 2.85572 3.41249C2.78141 3.33177 2.73723 3.27191 2.75754 3.27947C2.83427 3.30802 2.99405 3.41455 3.08181 3.49569L3.17292 3.57993V3.49242C3.17292 3.23895 3.06885 2.84298 2.92838 2.56187C2.8452 2.39546 2.61486 2.04336 2.5207 1.93869L2.45853 1.8696L2.41821 2.01257ZM13.4601 1.96072C13.199 2.2644 12.964 2.72775 12.8729 3.1183C12.8433 3.24519 12.8099 3.58693 12.8271 3.58693C12.8321 3.58693 12.878 3.54585 12.9291 3.49567C13.0162 3.4101 13.2195 3.27295 13.2592 3.27295C13.269 3.27295 13.227 3.32514 13.1657 3.38892C13.0412 3.51867 12.9484 3.65711 12.8843 3.80857C12.8473 3.89583 12.8411 3.94269 12.8399 4.14102C12.8385 4.35356 12.8421 4.37839 12.8841 4.45389C12.9423 4.55865 13.0474 4.63323 13.3118 4.75753L13.5238 4.85717L13.6698 4.74C13.7501 4.67554 13.8717 4.58713 13.9399 4.54352C14.0082 4.49992 14.0643 4.45686 14.0646 4.44785C14.0648 4.43884 14.011 4.37107 13.945 4.29727C13.6905 4.01286 13.5868 3.76826 13.5733 3.4207L13.565 3.2083L13.6124 3.33759C13.7214 3.63486 13.87 3.86852 14.0815 4.07515L14.1747 4.16628L14.2239 4.05668C14.3472 3.78208 14.4718 3.52714 14.5068 3.478C14.5278 3.44843 14.545 3.41995 14.545 3.41472C14.545 3.40949 14.5036 3.39145 14.453 3.37462C14.3656 3.34559 14.3596 3.33929 14.3325 3.24848C14.3168 3.19591 14.2988 3.09163 14.2924 3.01676L14.2808 2.88062L14.148 3.02562L14.0152 3.17063L13.9664 3.11559C13.9396 3.08532 13.8957 3.01659 13.8688 2.96288C13.7792 2.78358 13.8325 2.59694 14.0314 2.39372L14.1417 2.281L14.0546 2.26906C13.9308 2.25208 13.8255 2.25426 13.752 2.27535C13.6741 2.2977 13.6733 2.29663 13.611 2.0909C13.5368 1.84553 13.5496 1.85659 13.4601 1.96072ZM0.672274 4.3835C0.680526 4.39743 0.706261 4.43417 0.729486 4.46514C0.795503 4.55324 0.950042 4.88977 1.01272 5.08198C1.04403 5.17795 1.09042 5.37327 1.11582 5.51602C1.19809 5.97833 1.21459 6.04044 1.27278 6.10675C1.30234 6.14044 1.34943 6.173 1.37744 6.17911C1.40542 6.18524 1.44645 6.19542 1.46858 6.20174C1.50166 6.21119 1.51527 6.20057 1.5451 6.14206C1.62692 5.9816 1.67167 5.67933 1.63979 5.50237C1.59354 5.2457 1.36906 4.9056 1.09367 4.67499C0.932836 4.54031 0.648736 4.34379 0.672274 4.3835ZM15.1809 4.46313C14.7069 4.78788 14.406 5.17723 14.3565 5.52993C14.3324 5.70221 14.3685 5.94942 14.4412 6.10815L14.4891 6.21295L14.5678 6.2002C14.622 6.19145 14.6679 6.16696 14.7149 6.1218C14.7905 6.0491 14.794 6.03752 14.869 5.60912C14.8939 5.4668 14.934 5.27979 14.9581 5.19356C15.0296 4.93735 15.1785 4.59247 15.273 4.46423C15.3226 4.39682 15.3433 4.36265 15.3343 4.36265C15.3306 4.36265 15.2616 4.40786 15.1809 4.46313ZM2.22056 5.83696C2.07634 5.88683 1.93694 5.98522 1.87739 6.07917C1.81331 6.18026 1.71142 6.48957 1.66708 6.71752C1.6269 6.92412 1.62061 7.50321 1.65574 7.76105C1.68343 7.96432 1.74794 8.3459 1.76285 8.39475C1.77064 8.42028 1.79795 8.39186 1.87822 8.2747C2.10708 7.94057 2.34534 7.63394 2.67137 7.25385C3.08028 6.77717 3.19114 6.51965 3.10906 6.23718C3.08288 6.14709 3.05678 6.10806 2.95371 6.00494C2.84691 5.89812 2.81248 5.87564 2.70404 5.84214C2.54801 5.79393 2.3511 5.79181 2.22056 5.83696ZM13.3174 5.82898C13.207 5.86373 13.1621 5.89197 13.0529 5.99532C12.9038 6.13635 12.8745 6.20345 12.8747 6.40354C12.875 6.67059 12.9546 6.81476 13.3743 7.30854C13.6126 7.58885 14.0175 8.11453 14.1629 8.33231C14.2061 8.39712 14.233 8.42327 14.2389 8.40619C14.2521 8.36816 14.3172 7.9851 14.3454 7.77952C14.3592 7.67871 14.3689 7.44295 14.3681 7.22543C14.3668 6.87996 14.3622 6.82741 14.3155 6.62517C14.2519 6.3502 14.1763 6.13964 14.1096 6.05219C14.0426 5.96427 13.9229 5.88343 13.7942 5.83911C13.673 5.79742 13.4338 5.79234 13.3174 5.82898ZM2.31685 6.22961C2.28876 6.53208 2.21188 6.70656 2.01836 6.90722C1.94346 6.98488 1.8839 7.05006 1.88601 7.05207C1.90174 7.06703 2.22394 7.00077 2.27198 6.97269C2.41647 6.88827 2.50913 6.64395 2.47494 6.43752C2.45818 6.33632 2.38463 6.15385 2.34359 6.11168C2.33567 6.10355 2.32363 6.15662 2.31685 6.22961ZM13.6097 6.20102C13.4984 6.41103 13.494 6.63145 13.5972 6.82128C13.6804 6.97415 13.7469 7.00908 14.0004 7.03287L14.1296 7.04498L14.0732 7.0013C13.8496 6.82824 13.7131 6.56184 13.6822 6.23796L13.6681 6.09086L13.6097 6.20102ZM1.09657 6.41861C1.04999 6.48971 1.0141 6.68279 0.987813 7.0038C0.974078 7.17141 0.965401 7.31159 0.968503 7.3153C0.979857 7.32886 1.17228 7.12139 1.22995 7.03344C1.29735 6.93064 1.35432 6.79043 1.39946 6.61632L1.43049 6.49666L1.31048 6.43624C1.16801 6.36453 1.13382 6.3617 1.09657 6.41861ZM14.7204 6.42204C14.6798 6.44731 14.6325 6.46803 14.6153 6.46809C14.5644 6.46823 14.5637 6.49008 14.6093 6.65186C14.6747 6.88352 14.7694 7.05943 14.9054 7.20166C14.9705 7.26966 15.0272 7.32153 15.0316 7.31691C15.0431 7.30463 14.9929 6.71595 14.9703 6.59898C14.9298 6.38933 14.8564 6.3374 14.7204 6.42204Z" fill="url(#paint0_linear_20_13)" stroke="url(#paint1_linear_20_13)" stroke-width="0.5" mask="url(#path-1-inside-1_20_13)"/>
<path fill-rule="evenodd" clip-rule="evenodd" d="M5.07445 7.21594L5.02234 8.5942C5.13649 8.60424 5.27547 8.61177 5.43926 8.61679C5.60305 8.62683 5.77429 8.63436 5.95297 8.63938C6.13166 8.64943 6.29793 8.65696 6.4518 8.66198C6.61063 8.667 6.73719 8.66951 6.8315 8.66951C6.90595 8.66951 7.00522 8.64189 7.1293 8.58666C7.25339 8.52641 7.38244 8.44859 7.51645 8.35319C7.53251 8.34216 7.54837 8.33107 7.56403 8.31991V10.6616C7.56403 10.6659 7.56058 10.6712 7.55647 10.6776C7.54619 10.6935 7.53178 10.7157 7.55659 10.7444C7.59629 10.7846 7.636 10.8223 7.67571 10.8574C7.71542 10.8875 7.74272 10.9051 7.75761 10.9101C7.84695 10.9252 7.96359 10.9377 8.10753 10.9478C8.25146 10.9578 8.40533 10.9679 8.56912 10.9779C8.73291 10.9879 8.89423 10.9955 9.05306 11.0005C9.21188 11.0055 9.35334 11.008 9.47743 11.008C9.52706 11.008 9.5891 10.9905 9.66355 10.9553C9.74297 10.9202 9.82735 10.875 9.91669 10.8197C10.006 10.7595 10.0904 10.6967 10.1698 10.6315C10.2542 10.5662 10.3287 10.5034 10.3932 10.4432C10.4577 10.3829 10.4999 10.3327 10.5197 10.2925C10.5594 10.2172 10.5867 10.1218 10.6016 10.0063C10.6165 9.89086 10.624 9.76785 10.624 9.6373C10.624 9.35111 10.5421 9.1101 10.3783 8.91428C10.2195 8.71846 9.99858 8.59545 9.71567 8.54524V8.50005C9.83479 8.37955 9.93902 8.25904 10.0284 8.13854C10.1227 8.01804 10.1946 7.90758 10.2443 7.80716C10.2989 7.70674 10.3262 7.63142 10.3262 7.58121C10.3262 7.25485 10.2815 7.0038 10.1922 6.82806C10.1028 6.64731 9.97377 6.52179 9.80501 6.45149C9.63626 6.37618 9.42779 6.33852 9.17962 6.33852H8.99349H8.87437H8.80737C8.75773 6.47409 8.71058 6.60212 8.66591 6.72262C8.6262 6.84313 8.60635 6.931 8.60635 6.98623V10.5418L8.18884 10.5135V6.65741C8.18884 6.64235 8.11729 6.53813 8.08255 6.49796C8.05639 6.45827 7.97114 6.4063 7.95079 6.39424C7.91072 6.35935 7.86769 6.32446 7.8217 6.28957C7.70754 6.19417 7.58097 6.10379 7.442 6.01843C7.30798 5.92806 7.17397 5.8427 7.03996 5.76236C6.91091 5.68203 6.79179 5.6042 6.6826 5.52889C6.57836 5.45357 6.49647 5.38328 6.43691 5.31801C6.41705 5.29792 6.40216 5.25524 6.39224 5.18997C6.38231 5.11968 6.37486 5.04436 6.3699 4.96403C6.3699 4.87867 6.37238 4.79834 6.37735 4.72302C6.38727 4.64771 6.40216 4.59248 6.42202 4.55733C6.43194 4.53724 6.44435 4.52218 6.45924 4.51214C6.4791 4.5021 6.50391 4.49457 6.53369 4.48955C6.56347 4.4795 6.59822 4.47448 6.63792 4.47448C6.70741 4.47448 6.79179 4.48201 6.89106 4.49708C6.99033 4.51214 7.08959 4.53473 7.18886 4.56486C7.29309 4.58996 7.38244 4.62009 7.45689 4.65524L7.56856 5.42345H7.98549L8.04505 4.12803C7.96067 4.11297 7.86389 4.09791 7.75469 4.08285C7.6455 4.06778 7.53134 4.05523 7.41222 4.04519C7.29806 4.03515 7.18638 4.02762 7.07719 4.02259C6.97295 4.01255 6.88113 4.00753 6.80172 4.00753C6.72727 4.00251 6.67515 4 6.64537 4C6.57092 4 6.47413 4.0251 6.35501 4.07531C6.24085 4.12552 6.11677 4.19331 5.98275 4.27866C5.85371 4.359 5.72466 4.45189 5.59561 4.55733C5.47152 4.65775 5.35985 4.76068 5.26058 4.86612C5.16131 4.96654 5.08934 5.05943 5.04467 5.14478C5.02978 5.19499 5.01737 5.25775 5.00745 5.33307C5.00248 5.40336 5 5.47868 5 5.55901C5 5.63935 5.00496 5.71717 5.01489 5.79249C5.02482 5.86278 5.03723 5.92555 5.05212 5.98078C5.07197 6.05609 5.13649 6.14647 5.24569 6.25191C5.35985 6.35233 5.49386 6.45777 5.64772 6.56823C5.80655 6.67869 5.96538 6.78664 6.12421 6.89208C6.28304 6.99752 6.42202 7.09543 6.54114 7.18581C6.66522 7.27619 6.74712 7.34899 6.78683 7.40422C6.80668 7.42933 6.81661 7.46699 6.81661 7.5172C6.82157 7.56741 6.82157 7.62264 6.81661 7.68289C6.81661 7.74314 6.81413 7.80339 6.80916 7.86364C6.87865 7.8285 6.9531 7.78331 7.03252 7.72808C7.11689 7.66782 7.16901 7.6151 7.18886 7.56992C7.19879 7.52975 7.20375 7.47954 7.20375 7.41929C7.20872 7.35401 7.19879 7.29627 7.17397 7.24606C7.15412 7.20087 7.10697 7.14815 7.03252 7.0879C6.95806 7.02263 6.86624 6.95234 6.75705 6.87702C6.65281 6.79669 6.54114 6.71635 6.42202 6.63601C6.30289 6.55066 6.18625 6.46781 6.0721 6.38748L5.65517 6.08622C5.55094 6.0109 5.47401 5.92555 5.42437 5.83015C5.40452 5.77994 5.38715 5.72722 5.37226 5.67199C5.36233 5.61173 5.35737 5.54144 5.35737 5.4611C5.35737 5.39081 5.36481 5.33056 5.3797 5.28035C5.39955 5.23014 5.43182 5.17993 5.47649 5.12972C5.52612 5.07449 5.59561 5.01173 5.68495 4.94143C5.68991 5.03181 5.69488 5.12721 5.69984 5.22763C5.7048 5.32303 5.71225 5.40838 5.72218 5.4837C5.73707 5.55399 5.74947 5.60169 5.7594 5.6268C5.79911 5.69709 5.87604 5.77994 5.9902 5.87534C6.10932 5.97073 6.24582 6.07115 6.39968 6.17659C6.55851 6.28203 6.71486 6.38748 6.86872 6.49292C7.02755 6.59334 7.16653 6.68622 7.28565 6.77158C7.40973 6.85694 7.49163 6.92723 7.53134 6.98246C7.54623 6.99752 7.55616 7.03267 7.56112 7.0879C7.56214 7.0936 7.56311 7.09941 7.56403 7.10532V7.55709C7.55943 7.60556 7.55349 7.65001 7.54623 7.69042C7.54126 7.73059 7.50404 7.7808 7.43455 7.84105C7.37003 7.9013 7.29558 7.96155 7.2112 8.0218C7.12682 8.07703 7.04741 8.12473 6.97295 8.1649C6.90347 8.20507 6.85631 8.22515 6.8315 8.22515C6.79179 8.22515 6.72478 8.22013 6.63048 8.21009C6.53617 8.19503 6.42698 8.17745 6.30289 8.15737C6.18377 8.13227 6.06217 8.10716 5.93808 8.08206C5.81896 8.05695 5.70977 8.03436 5.6105 8.01427L5.49138 7.21594H5.07445ZM8.70695 10.5486L9.59655 10.6089C9.63626 10.6139 9.67348 10.5988 9.70822 10.5637C9.74297 10.5235 9.77275 10.4607 9.79757 10.3754C9.82735 10.29 9.84968 10.1796 9.86457 10.044C9.88443 9.90844 9.89435 9.74274 9.89435 9.54693C9.89435 9.33604 9.85713 9.18541 9.78268 9.09504C9.70823 9.00466 9.59407 8.94692 9.4402 8.92181L8.99349 8.8491V10.1871C8.99349 10.2172 8.98605 10.2599 8.97116 10.3151C8.95627 10.3704 8.92153 10.4482 8.86693 10.5486H8.70695ZM8.99349 8.46239H9.33597C9.36575 8.46239 9.39553 8.4398 9.42531 8.39461C9.45509 8.3444 9.48239 8.27662 9.50721 8.19126C9.53202 8.1059 9.55188 8.01051 9.56677 7.90507C9.58662 7.7946 9.59655 7.67912 9.59655 7.55862C9.59655 7.31761 9.58662 7.13686 9.56677 7.01635C9.55188 6.89083 9.51962 6.80798 9.46998 6.76781C9.42531 6.72765 9.36079 6.71258 9.27641 6.72262L8.99349 6.7457V8.46239Z" fill="url(#paint2_radial_20_13)"/>
</g>
<defs>
<linearGradient id="paint0_linear_20_13" x1="13.1491" y1="1.46251" x2="4.1314" y2="12.7447" gradientUnits="userSpaceOnUse">
<stop stop-color="#0F2027"/>
<stop offset="0.453125" stop-color="#203A43"/>
<stop offset="1" stop-color="#2C5364"/>
</linearGradient>
<linearGradient id="paint1_linear_20_13" x1="8.00362" y1="0" x2="8.00362" y2="16" gradientUnits="userSpaceOnUse">
<stop stop-color="#2C5263"/>
<stop offset="1" stop-color="#112229"/>
</linearGradient>
<radialGradient id="paint2_radial_20_13" cx="0" cy="0" r="1" gradientUnits="userSpaceOnUse" gradientTransform="translate(7.97627 7.77352) rotate(99.0664) scale(5.05914 3.59155)">
<stop stop-color="white"/>
<stop offset="1" stop-color="white"/>
</radialGradient>
<clipPath id="clip0_20_13">
<rect width="16" height="16" fill="white"/>
</clipPath>
</defs>
</svg>
